<!DOCTYPE svg PUBLIC "-//W3C//DTD SVG 20010904//EN" "http://www.w3.org/TR/2001/REC-SVG-20010904/DTD/svg10.dtd">
<svg version="1.0" xmlns="http://www.w3.org/2000/svg" width="50px" height="69px" viewBox="0 0 500 690" preserveAspectRatio="xMidYMid meet">
<g id="layer101" fill="#ffffff" stroke="none">
 <path d="M13 683 c-19 -7 -19 -536 0 -550 6 -6 93 -31 192 -58 99 -26 197 -54 217 -62 28 -11 41 -12 57 -3 20 10 21 18 21 275 0 145 -3 270 -6 279 -3 9 -12 16 -20 16 -7 0 -104 25 -215 55 -197 54 -221 59 -246 48z m284 -153 c24 -6 42 -14 42 -18 -1 -4 -1 -15 0 -24 1 -22 39 -24 47 -3 17 44 24 -4 24 -175 0 -133 -3 -190 -11 -190 -9 0 -235 59 -292 76 -15 5 -17 23 -17 198 l0 194 83 -23 c45 -13 101 -28 124 -35z"/>
 <path d="M260 475 c0 -20 5 -25 25 -25 20 0 25 5 25 25 0 20 -5 25 -25 25 -20 0 -25 -5 -25 -25z"/>
 <path d="M184 465 c-8 -19 3 -35 25 -35 24 0 30 8 24 31 -6 22 -41 26 -49 4z"/>
 <path d="M106 451 c-11 -18 6 -41 30 -41 25 0 28 7 18 34 -7 17 -39 22 -48 7z"/>
 </g>

</svg>